HIERARCHY
ROOT Hips
{
	OFFSET 0.000000 97.167313 0.000000
	CHANNELS 6 Xposition Yposition Zposition Xrotation Yrotation Zrotation
	JOINT Spine
	{
		OFFSET 0.000000 13.784798 0.064400
		CHANNELS 3 Xrotation Yrotation Zrotation
		JOINT Spine1
		{
			OFFSET 0.000000 12.037903 0.404700
			CHANNELS 3 Xrotation Yrotation Zrotation
			JOINT Spine2
			{
				OFFSET 0.000000 17.795601 0.420200
				CHANNELS 3 Xrotation Yrotation Zrotation
				JOINT Neck
				{
					OFFSET 0.000000 39.131302 11.954600
					CHANNELS 3 Xrotation Yrotation Zrotation
					JOINT Head
					{
						OFFSET 0.000000 14.456192 15.627699
						CHANNELS 3 Xrotation Yrotation Zrotation
						JOINT HeadTop_End
						{
							OFFSET 0.000000 15.703506 7.603401
							CHANNELS 3 Xrotation Yrotation Zrotation
							End Site
							{
								OFFSET 0.000000 17.447403 0.000000
							}
						}
					}
				}
				JOINT LeftShoulder
				{
					OFFSET 17.399500 24.608795 1.168800
					CHANNELS 3 Xrotation Yrotation Zrotation
					JOINT LeftArm
					{
						OFFSET 18.980635 5.765305 1.818600
						CHANNELS 3 Xrotation Yrotation Zrotation
						JOINT LeftForeArm
						{
							OFFSET 49.290169 0.000000 0.000000
							CHANNELS 3 Xrotation Yrotation Zrotation
							JOINT LeftHand
							{
								OFFSET 31.562012 0.000000 0.000000
								CHANNELS 3 Xrotation Yrotation Zrotation
								JOINT LeftHandThumb1
								{
									OFFSET 6.133995 -4.388519 7.076070
									CHANNELS 3 Xrotation Yrotation Zrotation
									JOINT LeftHandThumb2
									{
										OFFSET 6.037666 -3.485840 3.485847
										CHANNELS 3 Xrotation Yrotation Zrotation
										JOINT LeftHandThumb3
										{
											OFFSET 6.496506 -3.750763 3.750761
											CHANNELS 3 Xrotation Yrotation Zrotation
											JOINT LeftHandThumb4
											{
												OFFSET 5.616882 -3.242905 3.242910
												CHANNELS 3 Xrotation Yrotation Zrotation
												End Site
												{
													OFFSET -1.254608 7.132141 0.375429
												}
											}
										}
									}
								}
								JOINT LeftHandPinky1
								{
									OFFSET 18.920792 -0.453171 -11.426712
									CHANNELS 3 Xrotation Yrotation Zrotation
									JOINT LeftHandPinky2
									{
										OFFSET 4.919586 0.000000 0.000000
										CHANNELS 3 Xrotation Yrotation Zrotation
										JOINT LeftHandPinky3
										{
											OFFSET 5.233047 0.000000 0.000000
											CHANNELS 3 Xrotation Yrotation Zrotation
											JOINT LeftHandPinky4
											{
												OFFSET 5.571716 0.000000 0.000000
												CHANNELS 3 Xrotation Yrotation Zrotation
												End Site
												{
													OFFSET -3.459808 4.342407 -0.466164
												}
											}
										}
									}
								}
								JOINT LeftHandRing1
								{
									OFFSET 22.726120 -0.094986 -6.500475
									CHANNELS 3 Xrotation Yrotation Zrotation
									JOINT LeftHandRing2
									{
										OFFSET 6.408615 0.000000 0.000000
										CHANNELS 3 Xrotation Yrotation Zrotation
										JOINT LeftHandRing3
										{
											OFFSET 6.150223 0.000000 0.000000
											CHANNELS 3 Xrotation Yrotation Zrotation
											JOINT LeftHandRing4
											{
												OFFSET 6.145386 0.000000 0.000000
												CHANNELS 3 Xrotation Yrotation Zrotation
												End Site
												{
													OFFSET -3.671402 4.923981 -0.202372
												}
											}
										}
									}
								}
								JOINT LeftHandMiddle1
								{
									OFFSET 23.373947 0.000000 0.000001
									CHANNELS 3 Xrotation Yrotation Zrotation
									JOINT LeftHandMiddle2
									{
										OFFSET 6.996567 0.000000 0.000000
										CHANNELS 3 Xrotation Yrotation Zrotation
										JOINT LeftHandMiddle3
										{
											OFFSET 7.015945 0.000000 0.000000
											CHANNELS 3 Xrotation Yrotation Zrotation
											JOINT LeftHandMiddle4
											{
												OFFSET 7.721573 0.000000 0.000000
												CHANNELS 3 Xrotation Yrotation Zrotation
												End Site
												{
													OFFSET -4.651108 6.158463 0.251582
												}
											}
										}
									}
								}
								JOINT LeftHandIndex1
								{
									OFFSET 21.310577 -0.490082 6.209344
									CHANNELS 3 Xrotation Yrotation Zrotation
									JOINT LeftHandIndex2
									{
										OFFSET 7.536453 0.000000 0.000000
										CHANNELS 3 Xrotation Yrotation Zrotation
										JOINT LeftHandIndex3
										{
											OFFSET 7.512344 0.000000 0.000000
											CHANNELS 3 Xrotation Yrotation Zrotation
											JOINT LeftHandIndex4
											{
												OFFSET 10.212402 0.000000 0.000001
												CHANNELS 3 Xrotation Yrotation Zrotation
												End Site
												{
													OFFSET -5.180801 8.690506 1.388433
												}
											}
										}
									}
								}
							}
						}
					}
				}
				JOINT RightShoulder
				{
					OFFSET -17.399500 24.608795 1.168800
					CHANNELS 3 Xrotation Yrotation Zrotation
					JOINT RightArm
					{
						OFFSET -18.980635 5.765305 1.818600
						CHANNELS 3 Xrotation Yrotation Zrotation
						JOINT RightForeArm
						{
							OFFSET -49.290169 0.000000 0.000000
							CHANNELS 3 Xrotation Yrotation Zrotation
							JOINT RightHand
							{
								OFFSET -31.562012 0.000000 0.000000
								CHANNELS 3 Xrotation Yrotation Zrotation
								JOINT RightHandThumb1
								{
									OFFSET -6.133995 -4.388519 7.076070
									CHANNELS 3 Xrotation Yrotation Zrotation
									JOINT RightHandThumb2
									{
										OFFSET -6.037666 -3.485840 3.485847
										CHANNELS 3 Xrotation Yrotation Zrotation
										JOINT RightHandThumb3
										{
											OFFSET -6.496506 -3.750763 3.750761
											CHANNELS 3 Xrotation Yrotation Zrotation
											JOINT RightHandThumb4
											{
												OFFSET -5.616882 -3.242905 3.242910
												CHANNELS 3 Xrotation Yrotation Zrotation
												End Site
												{
													OFFSET 1.254608 7.132141 0.375429
												}
											}
										}
									}
								}
								JOINT RightHandIndex1
								{
									OFFSET -21.310577 -0.490082 6.209344
									CHANNELS 3 Xrotation Yrotation Zrotation
									JOINT RightHandIndex2
									{
										OFFSET -7.536453 0.000000 0.000000
										CHANNELS 3 Xrotation Yrotation Zrotation
										JOINT RightHandIndex3
										{
											OFFSET -7.512344 0.000000 0.000000
											CHANNELS 3 Xrotation Yrotation Zrotation
											JOINT RightHandIndex4
											{
												OFFSET -10.212402 0.000000 0.000001
												CHANNELS 3 Xrotation Yrotation Zrotation
												End Site
												{
													OFFSET 5.180801 8.690506 1.388433
												}
											}
										}
									}
								}
								JOINT RightHandMiddle1
								{
									OFFSET -23.373947 0.000000 0.000001
									CHANNELS 3 Xrotation Yrotation Zrotation
									JOINT RightHandMiddle2
									{
										OFFSET -6.996567 0.000000 0.000000
										CHANNELS 3 Xrotation Yrotation Zrotation
										JOINT RightHandMiddle3
										{
											OFFSET -7.015945 0.000000 0.000000
											CHANNELS 3 Xrotation Yrotation Zrotation
											JOINT RightHandMiddle4
											{
												OFFSET -7.721573 0.000000 0.000000
												CHANNELS 3 Xrotation Yrotation Zrotation
												End Site
												{
													OFFSET 4.651108 6.158463 0.251582
												}
											}
										}
									}
								}
								JOINT RightHandRing1
								{
									OFFSET -22.726120 -0.094986 -6.500475
									CHANNELS 3 Xrotation Yrotation Zrotation
									JOINT RightHandRing2
									{
										OFFSET -6.408615 0.000000 0.000000
										CHANNELS 3 Xrotation Yrotation Zrotation
										JOINT RightHandRing3
										{
											OFFSET -6.150223 0.000000 0.000000
											CHANNELS 3 Xrotation Yrotation Zrotation
											JOINT RightHandRing4
											{
												OFFSET -6.145386 0.000000 0.000000
												CHANNELS 3 Xrotation Yrotation Zrotation
												End Site
												{
													OFFSET 3.671402 4.923981 -0.202372
												}
											}
										}
									}
								}
								JOINT RightHandPinky1
								{
									OFFSET -18.920792 -0.453171 -11.426712
									CHANNELS 3 Xrotation Yrotation Zrotation
									JOINT RightHandPinky2
									{
										OFFSET -4.919586 0.000000 0.000000
										CHANNELS 3 Xrotation Yrotation Zrotation
										JOINT RightHandPinky3
										{
											OFFSET -5.233047 0.000000 0.000000
											CHANNELS 3 Xrotation Yrotation Zrotation
											JOINT RightHandPinky4
											{
												OFFSET -5.571716 0.000000 0.000000
												CHANNELS 3 Xrotation Yrotation Zrotation
												End Site
												{
													OFFSET 3.459808 4.342407 -0.466164
												}
											}
										}
									}
								}
							}
						}
					}
				}
			}
		}
	}
	JOINT LeftUpLeg
	{
		OFFSET 19.899099 -7.885101 -3.429500
		CHANNELS 3 Xrotation Yrotation Zrotation
		JOINT LeftLeg
		{
			OFFSET 1.745560 -36.997807 10.304700
			CHANNELS 3 Xrotation Yrotation Zrotation
			JOINT LeftFoot
			{
				OFFSET -1.745558 -29.803308 -13.615400
				CHANNELS 3 Xrotation Yrotation Zrotation
				JOINT LeftToeBase
				{
					OFFSET 1.181900 -18.539904 15.226099
					CHANNELS 3 Xrotation Yrotation Zrotation
					JOINT LeftToe_End
					{
						OFFSET -0.863701 1.402801 16.534700
						CHANNELS 3 Xrotation Yrotation Zrotation
						End Site
						{
							OFFSET 0.000000 16.616566 0.000000
						}
					}
				}
			}
		}
	}
	JOINT RightUpLeg
	{
		OFFSET -19.899099 -7.885101 -3.429500
		CHANNELS 3 Xrotation Yrotation Zrotation
		JOINT RightLeg
		{
			OFFSET -1.745560 -36.997807 10.304700
			CHANNELS 3 Xrotation Yrotation Zrotation
			JOINT RightFoot
			{
				OFFSET 1.745558 -29.803308 -13.615400
				CHANNELS 3 Xrotation Yrotation Zrotation
				JOINT RightToeBase
				{
					OFFSET -1.181900 -18.539904 15.226099
					CHANNELS 3 Xrotation Yrotation Zrotation
					JOINT RightToe_End
					{
						OFFSET 0.863701 1.402801 16.534700
						CHANNELS 3 Xrotation Yrotation Zrotation
						End Site
						{
							OFFSET 0.000000 16.616566 0.000000
						}
					}
				}
			}
		}
	}
}
MOTION
Frames: 4
Frame Time: 0.033333
13.742899 62.905617 95.090096 -0.743640 -45.797187 -8.783999 18.607640 1.896601 -5.935576 -1.237188 0.485406 -0.872082 -1.234033 0.446343 -0.894126 -9.407313 16.904530 6.148643 -7.598813 19.501952 2.767229 -0.000000 0.000000 0.000000 1.314528 -6.633938 -14.447899 -33.921206 0.784552 -14.208490 -0.000005 -98.426899 -0.000008 -39.837819 3.556380 -8.142710 -6.142580 -11.656721 -6.754942 9.914180 42.595515 3.409817 -0.440038 8.056740 27.513148 -0.000001 -0.000002 -0.000002 -3.757393 9.072086 -45.258299 5.342541 5.828991 -85.005324 8.716474 5.103550 -119.365096 -0.000002 -0.000000 -0.000000 0.472193 4.969795 -39.799232 8.187971 5.365600 -113.577064 3.202148 5.218952 -63.041157 -0.000001 0.000001 0.000007 -0.461203 3.839356 -39.691090 6.460702 5.819311 -95.991212 2.185050 4.563288 -51.154879 0.000000 -0.000000 0.000004 0.245169 3.377365 -45.817616 5.654103 5.847757 -88.067448 2.162144 4.544808 -50.866389 0.000001 0.000001 0.000001 2.959362 16.797979 -2.462375 -53.491969 25.254992 75.533443 0.000030 108.060300 -0.000002 -13.615794 22.312777 10.505586 -7.062273 13.280293 7.201078 9.354300 -43.329515 -3.734506 -0.276500 -14.017880 -28.917884 -0.000000 0.000001 0.000003 -0.135115 -2.382145 45.108991 4.500596 -4.654542 88.071143 1.723221 -3.618370 50.920133 -0.000001 0.000002 0.000004 -0.769809 -2.922615 39.029200 5.133910 -4.632754 95.881820 1.734185 -3.627228 51.093592 -0.000001 -0.000001 -0.000004 0.144603 -4.056140 39.118085 6.505116 -4.275581 113.400859 2.545353 -4.151771 63.008891 -0.000003 -0.000000 -0.000003 -4.219287 -8.023950 44.634193 4.252899 -4.639626 85.014811 6.935973 -4.062648 119.322285 -0.000000 0.000001 0.000002 -39.008727 -10.367236 36.300478 85.732719 -12.000121 6.905609 -37.232164 -12.264146 -20.728422 -17.534018 -0.000005 -0.000001 0.000000 -0.000002 -0.000000 -21.941633 -4.230175 -41.774742 58.266903 13.645400 -4.503436 -1.085928 2.344967 18.851548 -21.417561 -3.981230 20.076661 0.000001 -0.000000 -0.000001 
12.591516 62.932213 94.093628 -0.423623 -43.875680 -7.867084 19.850577 2.879193 -5.414616 -1.210203 0.632791 -0.884174 -1.205942 0.591545 -0.914277 -9.354305 16.392949 5.867152 -8.126497 17.579165 2.101424 -0.000000 -0.000000 0.000000 1.728104 -5.257793 -14.180285 -38.824315 -2.544840 -17.202897 -0.000946 -95.292504 -0.000962 -38.777549 5.161122 -9.632395 -6.141562 -11.654857 -6.752876 9.914181 42.595512 3.409817 -0.442744 8.057383 27.513322 0.000002 -0.000000 -0.000001 -3.756199 9.073283 -45.258131 5.342539 5.828997 -85.005324 8.716480 5.103540 -119.365096 -0.000003 -0.000001 -0.000006 0.473342 4.971144 -39.799150 8.187618 5.365741 -113.573294 3.202035 5.218891 -63.039880 -0.000002 -0.000001 0.000005 -0.461213 3.839394 -39.691414 6.460181 5.819400 -95.985687 2.184935 4.563209 -51.153466 -0.000000 -0.000002 0.000006 0.245182 3.377364 -45.817643 5.654099 5.847760 -88.067448 2.162145 4.544813 -50.866386 -0.000002 0.000003 0.000001 3.032700 17.509007 -2.682034 -54.333789 23.867423 76.984428 -0.000034 107.607076 0.000047 -11.947468 22.739745 10.333193 -7.059549 13.283667 7.200420 9.356481 -43.340948 -3.732966 -0.278134 -14.019545 -28.919431 -0.000000 -0.000001 -0.000001 -0.135116 -2.382122 45.109004 4.500597 -4.654543 88.071143 1.723224 -3.618367 50.920133 -0.000001 -0.000003 -0.000002 -0.769812 -2.922611 39.029204 5.133908 -4.632757 95.881827 1.734053 -3.627115 51.091502 -0.000001 0.000001 -0.000009 0.144595 -4.056138 39.118092 6.505040 -4.275609 113.399787 2.545294 -4.151734 63.007962 -0.000002 -0.000002 -0.000000 -4.219293 -8.023941 44.634190 4.252909 -4.639625 85.014818 6.935975 -4.062648 119.322285 0.000000 0.000001 0.000004 -39.787266 -11.555431 36.655703 83.409929 -12.840333 6.700601 -35.663642 -12.760583 -22.303141 -16.286451 -0.000018 -0.000004 0.000000 0.000003 0.000000 -22.934182 -3.200695 -42.739653 60.059165 14.304293 -4.942604 -5.008605 6.652363 20.327912 -19.722600 -4.200911 19.923703 -0.000000 0.000001 0.000000 
11.308584 62.706924 93.088211 0.132229 -42.824569 -6.716453 20.370086 3.480055 -5.124453 -1.001795 0.713707 -0.797774 -0.997332 0.674991 -0.830809 -9.604567 16.130417 5.509888 -7.998692 16.841349 0.755033 0.000000 0.000000 -0.000000 2.001668 -4.127951 -13.710613 -44.654824 -4.881286 -19.170160 -0.000058 -94.435930 -0.000069 -34.646900 5.746034 -10.005182 -6.140655 -11.652926 -6.751116 9.914179 42.595515 3.409823 -0.445982 8.055878 27.513223 0.000003 0.000002 0.000000 -3.754915 9.074529 -45.258005 5.342539 5.828995 -85.005331 8.716483 5.103554 -119.365083 -0.000003 0.000003 -0.000004 0.474513 4.972551 -39.799065 8.187880 5.365637 -113.575917 3.202095 5.218915 -63.040597 0.000001 -0.000003 0.000005 -0.461245 3.839199 -39.689615 6.460441 5.819347 -95.988576 2.185050 4.563293 -51.154900 -0.000000 -0.000004 -0.000001 0.245173 3.377371 -45.817623 5.654100 5.847758 -88.067448 2.162144 4.544810 -50.866389 -0.000002 -0.000000 -0.000001 3.102406 18.006841 -2.946432 -55.509511 23.735604 78.862368 -0.000042 107.224736 0.000060 -11.107508 22.878253 10.180912 -7.058282 13.290738 7.201157 9.362425 -43.355476 -3.731134 -0.277964 -14.024696 -28.921121 0.000001 -0.000001 0.000002 -0.135122 -2.382128 45.108994 4.500596 -4.654540 88.071143 1.723223 -3.618369 50.920133 -0.000001 0.000000 0.000001 -0.769805 -2.922617 39.029197 5.133914 -4.632756 95.881847 1.733948 -3.627042 51.089921 -0.000000 0.000000 -0.000008 0.144604 -4.056140 39.118081 6.504973 -4.275649 113.399056 2.545250 -4.151717 63.007334 0.000000 -0.000002 0.000002 -4.219291 -8.023942 44.634197 4.252904 -4.639630 85.014825 6.935974 -4.062652 119.322285 0.000002 0.000001 0.000004 -40.100840 -12.205962 37.398882 81.479307 -13.585455 6.540520 -34.547916 -12.724117 -24.008212 -15.750029 0.000001 0.000001 -0.000000 -0.000000 -0.000000 -24.617921 -2.048539 -43.907523 60.333165 15.514636 -4.514893 -9.698123 6.906119 24.011825 -17.016149 -2.984902 16.097214 0.000001 -0.000001 -0.000001 
9.927737 62.556412 92.336533 0.714674 -42.296486 -5.588591 20.291015 3.691256 -4.777854 -0.739015 0.740003 -0.732639 -0.734643 0.701140 -0.763706 -9.639476 15.971272 5.105855 -7.223642 16.303346 -0.365924 0.000000 0.000000 -0.000000 2.139272 -3.049197 -13.048485 -50.157924 -6.361263 -20.878476 0.000218 -94.470833 0.000247 -29.211746 5.720881 -10.030089 -6.139309 -11.649269 -6.749158 9.914185 42.595512 3.409818 -0.449817 8.052102 27.512752 -0.000000 0.000001 -0.000001 -3.753540 9.075857 -45.257814 5.342537 5.828997 -85.005331 8.716475 5.103550 -119.365096 -0.000003 -0.000001 0.000001 0.475773 4.974055 -39.798983 8.188447 5.365379 -113.582173 3.202286 5.219037 -63.042701 -0.000005 0.000002 0.000002 -0.461372 3.838719 -39.685284 6.461459 5.819256 -95.998466 2.185328 4.563531 -51.158332 -0.000002 0.000000 0.000008 0.245187 3.377367 -45.817623 5.654104 5.847759 -88.067448 2.162140 4.544813 -50.866389 -0.000001 0.000001 0.000001 3.165226 18.834923 -3.010299 -56.388553 24.317748 80.450025 0.000054 106.356748 -0.000017 -10.507250 22.579461 9.670401 -7.058860 13.306731 7.204291 9.378522 -43.386215 -3.728667 -0.276687 -14.039044 -28.923642 -0.000001 -0.000001 0.000002 -0.135117 -2.382132 45.109001 4.500590 -4.654543 88.071143 1.723221 -3.618368 50.920133 -0.000000 -0.000002 0.000004 -0.769813 -2.922625 39.029197 5.133904 -4.632759 95.881847 1.733890 -3.626992 51.088872 0.000001 0.000001 0.000001 0.144593 -4.056146 39.118092 6.504939 -4.275659 113.398578 2.545201 -4.151692 63.006883 0.000001 -0.000001 -0.000003 -4.219307 -8.023959 44.634204 4.252906 -4.639630 85.014811 6.935972 -4.062644 119.322285 -0.000001 -0.000001 0.000004 -39.631216 -12.241445 38.358479 79.476149 -14.370875 6.331570 -33.949749 -12.054602 -25.486060 -15.183705 0.000007 0.000006 -0.000000 0.000000 0.000000 -27.112504 -0.945937 -43.911406 59.718919 16.064251 -3.663748 -15.075916 3.776247 25.424343 -11.095536 -1.412590 12.974591 0.000001 0.000001 -0.000000 
